<?xml version="1.0" encoding="UTF-8"?>
<svg id="Layer_2" data-name="Layer 2" xmlns="http://www.w3.org/2000/svg" viewBox="0 0 58.47 57.49">
  <defs>
    <style>
      .cls-1 {
        fill: #fff;
        stroke-width: 0px;
      }
    </style>
  </defs>
  <g id="Layer_2-2" data-name="Layer 2">
    <g>
      <path class="cls-1" d="m58.47,34.94c-4.59,17.21-23.2,26.96-39.9,20.58C-.42,48.16-6.28,23.44,7.74,8.53c10.18-10.9,28.39-11.55,38.93-.82,11.85,11.58,10.14,32.41-4.23,41.13C23.87,60.31.7,44.47,5.12,22.99,9.67,1.38,39.14-2.65,48.45,17.75c7.46,16.82-7.65,35.28-25.61,29.91C8.65,43.43,3.62,25,13.79,14.21c10.39-11.03,29.13-6.44,32.58,8.51,2.71,11.29-5.98,22.81-17.76,22.46-11.81-.04-20.06-12.3-15.89-23.3,4-11.12,19.01-14.48,27.01-5.57,8.77,9.49,2.85,25.47-10.31,26.03-11.29.51-18.85-11.99-13.12-21.74,6.31-10.78,22.84-8.15,24.93,4.35,1.58,8.63-6.31,16.67-14.99,14.72-8.68-1.61-12.64-12.71-6.95-19.45,5.65-7.05,17.35-4.83,19.64,4.04,1.56,5.37-1.58,11.57-7.01,13.18-8.9,2.91-16.75-6.83-11.98-14.89,4.96-8.18,17.62-4.97,17.62,4.75.15,5.72-5.83,10.37-11.32,8.6-5.57-1.46-8.01-8.83-4.41-13.33,3.51-4.73,11.28-4,13.6,1.51,2.51,5.39-2.22,11.85-8.16,10.62-5.96-.99-7.93-9.18-2.97-12.7,5.01-3.73,12.09,1.08,10.31,7.12-1.78,6.16-10.73,5.97-11.92-.44-.92-4.33,3.65-8.26,7.76-6.46,4.17,1.6,4.56,7.88.51,9.86-4.09,2.18-8.84-2.07-7.05-6.37.99-2.65,4.45-3.85,6.85-2.33,4.09,2.47,2.06,9.03-2.8,8.38-2.86-.31-4.57-3.81-3.07-6.27,1.34-2.56,5.38-2.71,6.8-.14,2.6,4.64-4.33,8.38-6.48,3.4-1.09-2.84,2-5.74,4.73-4.24,2.74,1.44,1.95,5.82-1.21,5.99-3.21.22-4.42-4.27-1.47-5.61,1.25-.59,2.9-.05,3.53,1.19,1.13,1.94-.74,4.49-2.93,3.84-3.36-1.05-1.59-6.08,1.67-4.52,2.08,1.14,1.13,4.48-1.28,4.18-1.43-.13-2.29-1.87-1.55-3.09,1.32-2.21,4.62-.38,3.35,1.9-.72,1.28-2.82,1.08-3.21-.36-.69-2.74,3.61-3.02,3.13-.19.19-.66-.11-1.41-.69-1.77-.57-.37-1.38-.31-1.9.13-1.18.9-.53,2.96.94,3.05,2.61.16,2.62-3.73.05-3.73-2.49.09-2.55,3.76-.13,4.06,1.4.22,2.66-1.16,2.38-2.53-.37-2.33-3.69-2.53-4.43-.33-.49,1.29.32,2.86,1.66,3.19,2.16.64,4-1.88,2.89-3.79-1.63-2.87-5.89-.94-5.05,2.18.32,1.32,1.66,2.29,3.02,2.17,1.36-.06,2.57-1.15,2.79-2.49.61-3.01-3.14-5.03-5.35-2.93-2.22,1.95-.81,5.87,2.14,5.99,2.9.29,4.88-3.24,3.32-5.63-2.78-4.24-8.92-.46-6.77,4.01,1.16,2.58,4.9,3.08,6.78,1.02,1.98-1.95,1.47-5.57-.93-6.95-2.35-1.49-5.72-.31-6.69,2.28-1.08,2.52.37,5.7,3,6.51,4.27,1.47,8.13-3.21,6.21-7.19-1.72-4.04-7.73-4.13-9.74-.29-2.19,3.64.71,8.76,4.97,8.71,6.22.16,8.51-8.09,3.48-11.48-5.04-3.44-11.56,1.46-10.09,7.27,1.31,5.83,9.08,7.24,12.57,2.5,3.53-4.51.38-11.69-5.35-12.09-7.65-.79-11.6,8.83-6.17,14.01,3.94,3.99,11.23,2.55,13.53-2.51,3.24-6.59-2.61-14.3-9.84-12.88-9.05,1.65-10.48,14.03-2.51,18.21,4.8,2.64,11.32.52,13.73-4.37,5.64-11.93-9.72-21.61-18.24-11.68-5.52,6.54-1.67,17.32,6.76,18.87,8.42,1.89,16.07-5.92,14.52-14.3-3.41-16.43-26.51-13.04-26.05,3.47.58,11.99,14.84,17.64,23.7,9.73,6.21-5.37,6.52-15.68.88-21.57-5.41-6.18-15.61-6.51-21.66-1.08-6.24,5.28-7.29,15.16-2.64,21.8,6.28,9.51,20.66,9.59,27.47.63,11.13-15.15-4.33-34.91-21.76-27.86-10.33,4.03-14.7,17.17-9.6,26.84,4.78,9.98,17.73,13.88,27.36,8.6,15.72-8.31,14.35-31.57-1.77-38.59-9.88-4.56-22.39-.49-27.98,8.78-12.65,21.97,11.52,45.44,33.23,32.4,14.58-8.87,15.53-30.42,2.58-41.18C34.3-2.07,17.63-.81,8.39,9.15-4.32,22.61-.2,45.01,16.18,53.4c10.74,5.58,24.73,3.44,33.31-5.12,3.9-3.66,6.56-8.49,8.02-13.6,0,0,.97.26.97.26h0Z"/>
      <circle class="cls-1" cx="28.48" cy="27.47" r="3.32"/>
    </g>
  </g>
</svg>