<?xml version="1.0" encoding="UTF-8"?>
<svg id="Layer_2" data-name="Layer 2" xmlns="http://www.w3.org/2000/svg" viewBox="0 0 71.95 70.18">
  <defs>
    <style>
      .cls-1 {
        fill: none;
        stroke: #fff;
        stroke-miterlimit: 10;
      }

      .cls-2 {
        fill: #fff;
        stroke-width: 0px;
      }
    </style>
  </defs>
  <g id="Layer_2-2" data-name="Layer 2">
    <g>
      <path class="cls-1" d="m71.47,43.42c-5.88,19.51-26.45,30.56-45.96,24.68C6.93,62.51-3.59,42.91,2,24.33,7.33,6.63,26-3.4,43.7,1.93c16.86,5.08,26.41,22.86,21.33,39.72s-21.78,25.16-37.83,20.32C11.9,57.36,3.24,41.23,7.84,25.93,12.23,11.36,27.6,3.11,42.17,7.5c13.88,4.18,21.74,18.82,17.56,32.7-3.98,13.22-17.93,20.71-31.14,16.73s-19.73-17.07-15.93-29.67,16.26-18.79,28.26-15.18,17.9,15.49,14.46,26.92c-3.28,10.88-14.76,17.05-25.64,13.77-10.37-3.12-16.24-14.06-13.12-24.42s13.39-15.47,23.26-12.49c9.4,2.83,14.73,12.75,11.9,22.16s-12.15,14.03-21.11,11.34-13.37-11.57-10.8-20.1,11.02-12.73,19.15-10.28c7.74,2.33,12.13,10.5,9.8,18.24"/>
      <circle class="cls-2" cx="34.93" cy="33.84" r="11.24"/>
    </g>
  </g>
</svg>